<?xml version="1.0" standalone="no"?>
<!DOCTYPE svg PUBLIC "-//W3C//DTD SVG 20010904//EN"
 "http://www.w3.org/TR/2001/REC-SVG-20010904/DTD/svg10.dtd">
<svg version="1.0" xmlns="http://www.w3.org/2000/svg"
 width="4569.000000pt" height="2094.000000pt" viewBox="0 0 4569.000000 2094.000000"
 preserveAspectRatio="xMidYMid meet">
<metadata>
Created by potrace 1.16, written by Peter Selinger 2001-2019
</metadata>
<g transform="translate(0.000000,2094.000000) scale(0.100000,-0.100000)"
fill="#000000" stroke="none">
<path d="M23911 17693 c-48 -11 -70 -12 -88 -4 -30 14 -54 15 -33 1 21 -13 8
-16 -135 -29 -315 -28 -685 -119 -1074 -263 -145 -53 -256 -73 -271 -47 -7 11
-17 9 -52 -10 -24 -13 -50 -30 -59 -38 -15 -12 -64 -24 -162 -39 -27 -3 -40
-12 -46 -27 -16 -41 -56 -66 -159 -96 -137 -41 -239 -90 -306 -149 -18 -15
-86 -67 -152 -114 -65 -47 -142 -109 -169 -137 -28 -29 -95 -86 -150 -128
-600 -457 -1079 -998 -1460 -1648 -92 -155 -286 -544 -373 -746 -185 -428
-313 -928 -372 -1453 -37 -328 -46 -626 -42 -1356 0 -66 83 -462 101 -484 5
-6 28 -83 50 -171 55 -211 145 -482 226 -680 37 -88 69 -167 72 -175 4 -8 -3
-4 -15 10 -13 15 -21 19 -22 11 0 -7 11 -26 25 -43 14 -16 25 -35 25 -42 0
-21 32 -59 40 -47 4 7 51 -68 110 -176 184 -334 388 -665 375 -608 -4 17 -22
95 -41 175 -73 312 -129 710 -184 1320 -16 184 -33 350 -36 368 -14 86 58 -21
102 -151 14 -42 39 -139 55 -215 15 -75 26 -121 24 -102 -3 19 -8 198 -12 398
l-6 363 -23 -22 c-13 -12 -26 -20 -29 -17 -10 10 29 79 41 74 23 -9 28 80 10
163 -18 87 -20 121 -7 121 5 0 13 -10 17 -22 7 -20 9 -18 16 16 5 25 5 43 -2
50 -5 5 -10 23 -10 38 0 15 -5 28 -11 28 -6 0 -9 -7 -5 -15 3 -8 1 -15 -4 -15
-11 0 -12 80 -1 155 3 28 11 49 17 48 8 -1 10 20 7 65 -3 44 1 86 12 122 9 30
20 96 26 145 15 137 30 224 39 230 8 5 29 -96 31 -146 0 -13 9 6 19 44 16 60
16 72 4 114 -19 61 -19 133 0 133 10 0 15 24 19 103 4 102 5 102 116 386 61
157 116 288 122 292 6 3 15 27 20 53 4 25 34 101 65 167 31 67 62 138 69 158
26 70 201 383 263 469 35 48 102 152 149 232 47 80 115 187 150 238 140 201
383 486 357 417 -6 -16 4 -19 30 -9 8 3 13 11 10 18 -10 27 82 153 200 270 66
67 149 156 184 198 35 42 69 75 75 72 7 -2 23 12 36 32 14 19 47 55 75 79 78
66 311 212 351 219 28 6 47 21 88 70 100 123 218 206 463 329 50 25 133 73
185 107 52 34 180 104 284 156 240 118 759 327 795 319 16 -3 53 5 95 21 147
56 341 108 544 145 133 24 644 98 649 94 2 -2 -2 -13 -8 -26 l-12 -22 73 6
c84 6 139 23 139 42 0 19 304 32 356 15 30 -10 57 -10 134 0 74 10 122 10 210
2 63 -6 183 -16 265 -23 83 -6 154 -15 160 -20 6 -6 -3 -7 -23 -3 -19 4 -32 2
-32 -3 0 -6 40 -15 88 -22 102 -13 173 -14 171 -3 -3 18 5 18 83 1 45 -10 84
-17 85 -15 2 2 -43 24 -99 51 -390 181 -791 326 -1148 415 -69 17 -192 49
-273 71 -119 33 -161 40 -215 38 -67 -3 -143 6 -172 21 -31 16 -361 51 -454
48 -55 -2 -92 1 -88 6 3 6 -97 7 -251 2 -160 -4 -257 -3 -257 3 0 5 10 12 23
14 18 4 19 4 2 5 -11 0 -49 -7 -84 -15z"/>
<path d="M23594 15948 c-390 -529 -668 -1085 -753 -1505 -123 -601 93 -1104
652 -1521 78 -58 231 -152 248 -152 19 0 181 109 276 186 115 94 280 266 356
372 119 165 209 375 243 560 21 118 21 331 -1 457 -72 423 -334 951 -737 1490
-109 145 -175 228 -187 233 -4 1 -48 -53 -97 -120z"/>
<path d="M21020 13353 c-289 -20 -540 -53 -540 -69 0 -50 268 -614 390 -819
219 -369 474 -679 700 -849 163 -123 366 -212 560 -247 97 -18 382 -18 480 -1
214 38 474 127 641 220 l84 47 3 50 c5 78 -16 278 -44 415 -67 335 -201 598
-409 805 -156 156 -315 252 -540 324 -190 62 -390 100 -645 121 -104 9 -570
11 -680 3z"/>
<path d="M25700 13353 c-436 -32 -785 -132 -1026 -293 -111 -75 -278 -244
-354 -360 -152 -233 -247 -522 -271 -830 -7 -98 -90 -2853 -89 -2987 0 -27 3
-30 23 -26 12 3 47 30 78 60 l56 54 6 487 c14 1015 56 1566 133 1728 11 22 29
38 62 52 155 66 355 100 652 112 306 11 462 47 650 146 414 220 836 772 1175
1539 75 169 106 253 97 259 -12 7 -347 45 -497 56 -128 9 -587 11 -695 3z"/>
<path d="M3150 5069 c-157 -18 -346 -88 -482 -180 -84 -56 -233 -207 -290
-294 -156 -239 -228 -498 -228 -820 0 -476 171 -856 495 -1100 291 -219 755
-268 1114 -117 233 98 462 325 572 567 103 228 148 501 128 774 -16 218 -63
390 -152 565 -223 438 -653 663 -1157 605z m307 -214 c78 -18 171 -63 237
-114 215 -167 346 -530 346 -962 0 -516 -167 -902 -451 -1037 -105 -50 -177
-66 -299 -65 -345 4 -597 268 -684 718 -47 241 -47 518 0 760 74 376 274 635
542 699 76 19 232 19 309 1z"/>
<path d="M11983 5070 c-326 -41 -609 -215 -786 -481 -147 -222 -217 -472 -217
-781 0 -396 135 -736 395 -991 221 -218 494 -331 826 -344 326 -13 653 57 888
190 l76 42 5 430 c5 427 5 430 29 483 31 68 82 100 175 109 l66 6 0 65 0 65
-127 -6 c-316 -15 -483 -121 -522 -332 -7 -35 -11 -196 -11 -397 l0 -338 -37
-18 c-197 -99 -545 -127 -761 -60 -307 93 -494 352 -559 772 -25 160 -24 467
1 601 63 338 224 588 451 703 128 64 192 77 380 77 184 0 238 -10 360 -65 175
-79 310 -253 368 -474 l22 -86 62 0 63 0 0 124 c0 146 -21 278 -56 352 -52
110 -221 228 -414 289 -181 56 -500 87 -677 65z"/>
<path d="M17945 5069 c-447 -61 -789 -360 -930 -813 -181 -579 -21 -1224 385
-1548 187 -150 395 -225 655 -235 597 -23 1040 346 1177 981 29 135 32 470 5
614 -97 518 -420 881 -877 983 -101 22 -316 32 -415 18z m310 -214 c33 -8 94
-32 135 -52 97 -46 216 -164 278 -275 214 -380 227 -1052 27 -1453 -132 -266
-330 -398 -595 -398 -177 0 -313 57 -441 183 -138 136 -221 320 -271 600 -8
49 -13 159 -13 320 0 214 3 259 22 355 82 406 271 651 553 720 76 18 233 18
305 0z"/>
<path d="M32145 5073 c-439 -40 -808 -342 -956 -783 -62 -187 -73 -263 -74
-510 0 -248 10 -320 67 -500 99 -311 307 -561 575 -695 174 -86 357 -122 571
-112 574 27 991 438 1083 1068 19 132 15 384 -9 519 -119 667 -620 1071 -1257
1013z m325 -232 c282 -98 458 -376 516 -815 20 -148 14 -454 -11 -589 -75
-411 -264 -668 -545 -743 -103 -27 -255 -23 -357 10 -275 89 -450 345 -519
761 -27 162 -25 486 5 649 26 147 68 274 129 391 89 171 255 308 424 351 83
21 277 13 358 -15z"/>
<path d="M20020 5056 c-160 -34 -263 -88 -366 -190 -118 -118 -174 -260 -174
-446 0 -177 51 -314 163 -436 89 -97 147 -137 503 -350 179 -107 349 -212 379
-234 85 -63 153 -138 188 -209 27 -55 33 -79 36 -149 3 -77 1 -88 -28 -147
-46 -94 -124 -151 -256 -191 -77 -23 -261 -23 -360 0 -266 63 -428 262 -495
609 l-11 57 -60 0 -60 0 3 -252 3 -253 30 -53 c75 -137 269 -249 520 -302 144
-30 363 -37 484 -16 192 34 303 88 421 206 129 129 184 273 184 485 -1 103 -4
130 -26 192 -30 84 -97 183 -165 243 -83 74 -179 136 -528 345 -361 215 -460
284 -513 358 -52 74 -65 113 -65 202 -1 68 4 89 28 139 87 174 304 243 574
181 248 -58 405 -258 471 -597 l11 -58 60 0 59 0 0 243 0 244 -31 61 c-69 139
-254 250 -509 307 -103 23 -383 29 -470 11z"/>
<path d="M24200 5055 c-158 -33 -263 -87 -366 -189 -118 -118 -174 -262 -174
-446 0 -189 55 -325 185 -456 91 -92 151 -134 430 -299 436 -257 522 -318 590
-420 21 -32 44 -78 51 -103 17 -54 17 -175 1 -219 -62 -167 -274 -261 -527
-233 -212 23 -348 96 -450 242 -74 105 -106 192 -155 416 -5 20 -11 22 -65 22
l-60 0 0 -228 c0 -257 7 -295 65 -375 175 -237 747 -360 1115 -240 118 39 188
81 276 168 124 123 179 250 190 445 14 227 -68 392 -271 545 -42 31 -233 151
-425 265 -193 115 -375 228 -406 251 -137 101 -196 198 -197 324 0 63 4 83 32
139 36 73 77 114 159 155 110 55 246 64 410 26 249 -58 411 -260 472 -587 l12
-68 60 0 59 0 -3 253 c-4 295 -3 293 -109 399 -145 143 -413 229 -709 227 -69
0 -154 -7 -190 -14z"/>
<path d="M37528 5060 c-281 -51 -479 -218 -544 -460 -12 -44 -17 -102 -17
-180 0 -198 51 -326 183 -459 90 -91 135 -121 480 -326 330 -196 387 -234 467
-308 46 -43 73 -80 100 -135 34 -68 38 -83 38 -156 0 -103 -27 -166 -96 -231
-90 -84 -205 -120 -374 -118 -203 3 -337 54 -455 172 -109 109 -177 251 -210
439 l-13 72 -64 0 -65 0 4 -242 c3 -241 3 -244 30 -298 82 -167 310 -289 630
-336 145 -21 347 -15 463 16 204 53 373 179 455 340 48 94 65 179 65 325 0
119 -3 150 -23 205 -28 82 -64 136 -143 216 -81 83 -170 143 -554 372 -417
248 -499 311 -548 421 -28 63 -34 163 -13 234 35 119 167 218 321 240 91 13
254 -7 347 -42 133 -51 234 -147 303 -287 38 -79 81 -216 91 -294 l7 -50 64 0
65 0 -4 248 -3 247 -27 50 c-80 147 -254 252 -513 310 -81 18 -376 28 -447 15z"/>
<path d="M4550 4947 l0 -64 90 -6 c133 -10 178 -35 217 -122 17 -38 18 -106
21 -1127 l3 -1088 844 0 845 0 0 100 0 100 -647 2 -648 3 -6 1005 c-3 675 -9
1016 -16 1040 -33 109 -67 154 -142 189 -55 26 -60 26 -308 29 l-253 4 0 -65z"/>
<path d="M6510 4941 l0 -69 99 -4 c82 -2 105 -7 128 -24 41 -31 70 -78 82
-135 8 -34 11 -392 11 -1109 l0 -1060 678 0 c788 0 750 -4 842 88 54 56 58 62
134 270 43 117 76 215 73 218 -7 7 -118 36 -121 32 -2 -2 -22 -42 -45 -90 -53
-113 -135 -203 -224 -246 -123 -61 -163 -65 -572 -66 l-370 -1 0 480 0 480
493 3 492 2 0 100 0 100 -495 0 -495 0 0 445 0 445 370 0 c235 0 388 -4 422
-11 67 -14 155 -59 190 -96 48 -51 81 -139 86 -230 l5 -83 69 0 70 0 -4 208
c-4 170 -8 214 -22 246 -31 69 -66 105 -134 138 l-67 33 -847 3 -848 3 0 -70z"/>
<path d="M9690 4968 c-17 -41 -980 -2310 -1013 -2391 l-16 -38 116 3 117 3
101 240 c56 132 121 286 144 343 l43 102 492 0 492 0 13 -37 c44 -126 109
-278 144 -338 58 -101 183 -222 278 -269 124 -61 279 -81 412 -55 l57 12 0 62
0 62 -66 12 c-37 7 -83 20 -103 31 -76 39 -146 131 -210 277 -21 49 -792 1919
-828 2011 -4 8 -29 12 -80 12 l-74 0 -19 -42z m179 -1055 c105 -254 191 -465
191 -468 0 -3 -178 -5 -395 -5 -217 0 -395 3 -395 6 0 3 81 193 179 422 99
230 189 439 201 466 11 27 22 47 24 45 2 -2 90 -212 195 -466z"/>
<path d="M13730 3958 c0 -622 5 -1084 10 -1128 19 -146 60 -218 147 -262 46
-22 59 -23 306 -26 l257 -3 0 64 0 64 -93 5 c-129 7 -177 36 -214 128 -17 42
-18 116 -21 1128 l-3 1082 -194 0 -195 0 0 -1052z"/>
<path d="M14420 4948 l0 -64 100 -11 c146 -16 204 -55 248 -165 16 -40 17
-126 20 -1105 l3 -1063 99 0 100 0 0 926 c0 740 3 924 13 916 6 -6 350 -431
762 -946 l750 -935 58 0 57 -1 0 1255 0 1255 -100 0 -100 0 0 -871 c0 -501 -4
-868 -9 -865 -9 6 -81 95 -781 966 -249 311 -476 586 -504 612 -28 26 -80 63
-116 82 -110 58 -162 68 -392 73 l-208 5 0 -64z"/>
<path d="M22093 4437 c-133 -314 -364 -860 -514 -1212 -149 -352 -275 -650
-280 -663 l-9 -23 117 3 116 3 143 340 142 340 493 0 492 0 66 -166 c36 -91
86 -195 109 -232 56 -85 170 -193 249 -235 122 -64 289 -88 426 -61 l57 12 0
62 0 62 -66 12 c-108 20 -167 59 -231 152 -50 73 -66 110 -498 1162 l-418
1017 -76 0 -76 0 -242 -573z m422 -567 c92 -223 170 -411 172 -417 4 -10 -78
-13 -392 -13 -374 0 -397 1 -392 18 5 18 385 901 394 916 3 5 16 -16 28 -45
12 -30 98 -236 190 -459z"/>
<path d="M26330 4947 l0 -63 94 -11 c139 -17 193 -50 238 -148 l23 -50 3
-1067 3 -1068 104 0 105 0 2 923 3 924 567 -706 c312 -388 653 -813 758 -943
l191 -238 59 0 60 0 0 1255 0 1255 -105 0 -105 0 0 -872 -1 -873 -22 26 c-12
15 -298 370 -636 789 -670 833 -670 832 -816 885 -99 35 -177 45 -362 45
l-163 0 0 -63z"/>
<path d="M29837 5003 c-3 -4 -226 -530 -497 -1168 -270 -638 -505 -1190 -520
-1227 l-29 -68 117 0 117 1 144 344 144 345 491 0 491 0 44 -118 c79 -210 134
-305 231 -403 95 -95 182 -145 300 -173 77 -19 195 -20 273 -5 l57 12 0 62 0
63 -47 7 c-134 20 -219 88 -292 233 -37 73 -132 298 -286 677 -30 72 -173 420
-319 775 l-265 645 -75 3 c-41 2 -76 -1 -79 -5z m156 -1075 c102 -245 188
-456 192 -467 l6 -21 -395 0 c-218 0 -396 2 -396 5 0 3 84 200 186 438 103
237 193 447 201 466 8 18 16 32 18 30 2 -2 87 -205 188 -451z"/>
<path d="M33480 4948 l0 -64 95 -11 c108 -13 162 -37 206 -93 60 -75 59 -54
59 -1197 l0 -1043 105 0 105 0 2 925 3 924 759 -944 759 -945 58 0 59 0 0
1255 0 1255 -105 0 -105 0 -2 -871 -3 -870 -625 777 c-344 427 -647 796 -674
820 -27 23 -76 56 -110 73 -106 53 -162 63 -383 68 l-203 5 0 -64z"/>
<path d="M39510 4947 l0 -64 90 -6 c105 -8 146 -22 183 -66 53 -64 51 -26 55
-1188 l2 -1083 195 0 195 0 0 555 0 555 103 0 103 0 189 -322 c105 -178 226
-377 269 -442 139 -209 282 -330 436 -367 79 -19 251 -16 328 6 l62 18 0 62 0
61 -59 11 c-124 23 -216 90 -324 234 -51 69 -471 759 -465 764 2 1 35 13 73
25 320 104 484 316 485 626 0 184 -53 318 -175 439 -90 90 -170 137 -303 179
-183 57 -199 59 -844 63 l-598 4 0 -64z m1080 -143 c332 -78 506 -399 369
-681 -77 -160 -292 -283 -494 -283 -64 0 -176 13 -217 26 -17 5 -18 36 -18
464 l0 459 53 10 c85 17 99 18 172 19 39 1 99 -5 135 -14z"/>
<path d="M42390 4947 l0 -64 88 -7 c158 -12 210 -59 232 -211 6 -43 10 -471
10 -1097 l0 -1028 840 0 840 0 0 100 0 100 -644 0 -645 0 -4 993 c-3 888 -5
999 -20 1055 -21 78 -36 108 -77 149 -57 58 -97 66 -372 71 l-248 4 0 -65z"/>
<path d="M39075 2941 c-149 -37 -219 -195 -147 -332 108 -207 422 -125 422
111 0 71 -26 126 -79 172 -58 49 -125 66 -196 49z"/>
<path d="M41930 2934 c-25 -9 -64 -35 -88 -57 -145 -141 -44 -387 158 -387
131 0 223 96 224 231 0 57 -4 74 -30 115 -56 91 -168 132 -264 98z"/>
</g>
</svg>
